<?xml version="1.0" encoding="utf-8"?>
<!-- Generator: Adobe Illustrator 23.0.2, SVG Export Plug-In . SVG Version: 6.00 Build 0)  -->
<svg version="1.1" id="Warstwa_1" xmlns="http://www.w3.org/2000/svg" xmlns:xlink="http://www.w3.org/1999/xlink" x="0px" y="0px"
	 viewBox="0 0 1249.5 167.1" style="enable-background:new 0 0 1249.5 167.1;" xml:space="preserve">
<style type="text/css">
	.st0{fill:none;stroke:#FFFFFF;stroke-width:6;stroke-miterlimit:10;}
	.st1{enable-background:new    ;}
	.st2{fill:#FFFFFF;}
</style>
<polygon class="st0" points="225.6,123.4 157.9,162.2 90.4,122.9 90.7,44.9 158.4,6.1 225.9,45.4 "/>
<g class="st1">
	<path class="st2" d="M319.5,72.1c6.7,1.8,12.9,3.8,18.5,6.1c5.6,2.2,10.5,4.9,14.6,8.1c4.1,3.2,7.3,7,9.6,11.5
		c2.3,4.5,3.4,9.8,3.4,15.9v0.6c0,6.7-1.4,12.8-4.1,18.4c-2.7,5.6-6.5,10.3-11.3,14.3c-4.8,4-10.4,7-16.9,9.2
		c-6.5,2.2-13.5,3.2-21.2,3.2c-7.1,0-13.9-0.9-20.4-2.6c-6.5-1.7-12.4-4-17.7-6.8c-5.3-2.8-9.9-6-13.9-9.6c-4-3.6-7-7.3-9.1-11.2
		l24.4-15.5c2.6,2.9,5.3,5.5,7.9,7.8c2.6,2.3,5.4,4.3,8.4,5.9c2.9,1.6,6.1,2.8,9.6,3.7c3.5,0.8,7.3,1.3,11.5,1.3
		c2.6,0,5.3-0.3,8-0.8c2.7-0.6,5.2-1.5,7.4-2.7c2.2-1.3,4-2.8,5.4-4.7c1.4-1.9,2.1-4.2,2.1-7c0-2-0.5-3.8-1.5-5.6
		c-1-1.8-2.6-3.6-5-5.3c-2.4-1.7-5.6-3.4-9.6-5c-4-1.6-9.1-3.2-15.3-4.7c-7.5-1.8-14.3-3.9-20.3-6.2c-6-2.3-11.1-5.1-15.3-8.4
		c-4.2-3.3-7.4-7.2-9.6-11.8c-2.2-4.6-3.3-10-3.3-16.3c0-6.8,1.3-13,3.9-18.5c2.6-5.5,6.2-10.2,10.8-13.9s10-6.7,16.2-8.7
		c6.2-2,12.9-3,20-3c7.4,0,14.1,0.8,20.1,2.5c6,1.7,11.4,3.8,16.1,6.4c4.7,2.6,8.9,5.5,12.4,8.8c3.6,3.3,6.5,6.4,8.9,9.5l-24,15.5
		c-6-5.7-11.7-9.7-17-12c-5.4-2.3-11-3.4-16.8-3.4c-3.6,0-6.7,0.5-9.3,1.4c-2.6,0.9-4.7,2-6.4,3.3c-1.7,1.3-3,2.8-3.9,4.5
		c-0.9,1.7-1.4,3.3-1.4,4.8c0,2.8,0.7,5.2,2.2,7.2c1.5,2,3.6,3.9,6.5,5.5c2.9,1.7,6.4,3.2,10.7,4.6C309.2,69.4,314,70.8,319.5,72.1z
		"/>
	<path class="st2" d="M449,9.5c10.3,0,19.9,2,28.8,6c8.9,4,16.6,9.3,23.2,16.1c6.5,6.8,11.7,14.7,15.4,23.8
		c3.7,9.1,5.5,18.8,5.5,29.2c0,8.8-1.3,17.1-4,25.1c-2.6,7.9-6.4,15.1-11.3,21.5c-4.9,6.4-10.7,11.9-17.4,16.4
		c-6.8,4.5-14.2,7.8-22.3,9.7l-14.6-24.9c5.9-0.4,11.2-2,16-4.7c4.8-2.7,8.9-6.2,12.4-10.4c3.5-4.2,6.2-9.2,8.1-14.8
		c1.9-5.6,2.9-11.6,2.9-17.9c0-6.5-1.1-12.7-3.2-18.6c-2.2-5.9-5.1-10.9-8.9-15.3c-3.8-4.3-8.3-7.7-13.5-10.2
		c-5.2-2.5-11-3.8-17.2-3.8c-6.3,0-12,1.3-17.2,3.8c-5.2,2.5-9.8,5.9-13.6,10.2c-3.8,4.3-6.8,9.4-9,15.3c-2.2,5.9-3.2,12.1-3.2,18.6
		c0,6.5,1.1,12.7,3.2,18.6c2.2,5.9,5.2,10.9,9,15.3c3.8,4.3,8.4,7.7,13.6,10.2c5.2,2.5,11,3.8,17.2,3.8v27.2
		c-10.3,0-19.9-1.9-28.8-5.9c-8.9-3.9-16.6-9.3-23.2-16.1c-6.5-6.8-11.7-14.8-15.4-23.9c-3.7-9.1-5.5-18.8-5.5-29.1
		c0-10.3,1.8-20,5.5-29.2c3.7-9.1,8.8-17.1,15.4-23.8c6.5-6.8,14.3-12.1,23.2-16.1C429.1,11.4,438.7,9.5,449,9.5z"/>
	<path class="st2" d="M534.5,11.1h98.8V36h-69.4v121.6h-29.5V11.1z M582.8,98.9l-13.6-27.2h46.4v27.2H582.8z"/>
	<path class="st2" d="M713.8,11.3v146.3h-30.1V36.8h-43V11.3H713.8z M718.2,11.3h38.7v25.5h-25.9L718.2,11.3z"/>
	<path class="st2" d="M867.4,11.3l0.2,24.4h-68.7l-0.2,97.6h68.7v24.2h-98V11.3H867.4z M850,99.3h-32.6l-13.6-27.2H850V99.3z"/>
	<path class="st2" d="M912.5,11.3l94.2,135.8v10.4h-30.5l-63.7-91.9v91.9H882V11.3H912.5z M976.2,11.3h30.5v109.5l-30.5-21.9V11.3z"
		/>
	<path class="st2" d="M1119.4,11.3l0.2,24.4h-68.7l-0.2,97.6h68.7v24.2h-98V11.3H1119.4z M1102,99.3h-32.6l-13.6-27.2h46.2V99.3z"/>
	<path class="st2" d="M1205,11.3v146.3h-30.1V36.8h-43V11.3H1205z M1209.4,11.3h38.7v25.5h-25.9L1209.4,11.3z"/>
</g>
</svg>
